<svg width="113" height="103" viewBox="0 0 113 103" fill="none" xmlns="http://www.w3.org/2000/svg">
<path d="M92.375 31V20.75H82.125V10.5H92.375V0.25H102.625V10.5H112.875V20.75H102.625V31H92.375ZM10.375 102.75C7.55626 102.75 5.14239 101.745 3.13338 99.7365C1.12438 97.7275 0.121592 95.3153 0.125009 92.5V31C0.125009 28.1812 1.12951 25.7674 3.13851 23.7584C5.14751 21.7494 7.55968 20.7466 10.375 20.75H26.5188L36 10.5H66.75V20.75H40.4844L31.1313 31H10.375V92.5H92.375V46.375H102.625V92.5C102.625 95.3187 101.621 97.7326 99.6115 99.7416C97.6025 101.751 95.1904 102.753 92.375 102.75H10.375ZM51.375 84.8125C57.7813 84.8125 63.2274 82.5694 67.7135 78.0833C72.1996 73.5973 74.441 68.1528 74.4375 61.75C74.4375 55.3437 72.1945 49.8976 67.7084 45.4115C63.2223 40.9254 57.7779 38.6841 51.375 38.6875C44.9688 38.6875 39.5226 40.9305 35.0365 45.4166C30.5504 49.9027 28.3091 55.3471 28.3125 61.75C28.3125 68.1562 30.5556 73.6024 35.0416 78.0885C39.5277 82.5745 44.9722 84.8159 51.375 84.8125ZM51.375 74.5625C47.7875 74.5625 44.7552 73.3239 42.2782 70.8468C39.8011 68.3698 38.5625 65.3375 38.5625 61.75C38.5625 58.1625 39.8011 55.1302 42.2782 52.6531C44.7552 50.176 47.7875 48.9375 51.375 48.9375C54.9625 48.9375 57.9948 50.176 60.4719 52.6531C62.949 55.1302 64.1875 58.1625 64.1875 61.75C64.1875 65.3375 62.949 68.3698 60.4719 70.8468C57.9948 73.3239 54.9625 74.5625 51.375 74.5625Z" fill="#282828"/>
</svg>
