<svg width="14" height="14" viewBox="0 0 14 14" fill="none" xmlns="http://www.w3.org/2000/svg">
<path d="M2.89607 0.687496C2.59987 0.411496 2.20811 0.261238 1.80332 0.26838C1.39852 0.275522 1.0123 0.439507 0.726028 0.725784C0.439751 1.01206 0.275766 1.39828 0.268624 1.80307C0.261482 2.20787 0.41174 2.59963 0.68774 2.89583L4.7919 7L0.68774 11.1042C0.534226 11.2472 0.411095 11.4197 0.325695 11.6114C0.240295 11.803 0.194374 12.0099 0.190673 12.2197C0.186971 12.4295 0.225565 12.6379 0.30415 12.8325C0.382736 13.027 0.499704 13.2038 0.648077 13.3522C0.796449 13.5005 0.973185 13.6175 1.16774 13.6961C1.3623 13.7747 1.5707 13.8133 1.78049 13.8096C1.99029 13.8059 2.19719 13.7599 2.38886 13.6745C2.58053 13.5891 2.75303 13.466 2.89607 13.3125L7.00024 9.20833L11.1044 13.3125C11.4006 13.5885 11.7924 13.7388 12.1972 13.7316C12.602 13.7245 12.9882 13.5605 13.2745 13.2742C13.5607 12.9879 13.7247 12.6017 13.7319 12.1969C13.739 11.7921 13.5887 11.4004 13.3127 11.1042L9.20857 7L13.3127 2.89583C13.4663 2.75278 13.5894 2.58028 13.6748 2.38862C13.7602 2.19695 13.8061 1.99005 13.8098 1.78025C13.8135 1.57045 13.7749 1.36206 13.6963 1.1675C13.6177 0.972941 13.5008 0.796205 13.3524 0.647833C13.204 0.49946 13.0273 0.382491 12.8327 0.303906C12.6382 0.225321 12.4298 0.186727 12.22 0.190429C12.0102 0.19413 11.8033 0.240051 11.6116 0.325451C11.42 0.410851 11.2475 0.533982 11.1044 0.687496L7.00024 4.79166L2.89607 0.687496Z" fill="#365ABA"/>
</svg>
